PathFileType	4	(X/Y/Z)	/Users/itak/Documents/Research/Walk-IL/dataset/trc/00363_00011.trc
DataRate	CameraRate	NumFrames	NumMarkers	Units	OrigDataRate	OrigDataStartFrame	OrigNumFrames
100.000000	100.000000	4	56	mm	100.000000	104	416
Frame#	Time	RPSI			LPSI			L3			STRN			T10			C7			CLAV			RBAK			LBAK			LSHO			LUPA			LAEL			LAOL			LWPS			LFRA			LHPS			LHTS			RSHO			RUPA			RAEL			RAOL			RWPS			RFRA			RIFD			RHTS			RHPS			RBHD			LFHD			RFHD			LBHD			LHIP			RHIP			RASI			LASI			LKNE			LTHI			LANK			LTIP			LTOE			LMT1			LMT5			LHEE			RKNE			RTIP			RTOE			RMT1			RMT5			RHEE			LWTS			LIFD			RWTS			RTHI			RANK			*53			*54			*55			
		X1	Y1	Z1	X2	Y2	Z2	X3	Y3	Z3	X4	Y4	Z4	X5	Y5	Z5	X6	Y6	Z6	X7	Y7	Z7	X8	Y8	Z8	X9	Y9	Z9	X10	Y10	Z10	X11	Y11	Z11	X12	Y12	Z12	X13	Y13	Z13	X14	Y14	Z14	X15	Y15	Z15	X16	Y16	Z16	X17	Y17	Z17	X18	Y18	Z18	X19	Y19	Z19	X20	Y20	Z20	X21	Y21	Z21	X22	Y22	Z22	X23	Y23	Z23	X24	Y24	Z24	X25	Y25	Z25	X26	Y26	Z26	X27	Y27	Z27	X28	Y28	Z28	X29	Y29	Z29	X30	Y30	Z30	X31	Y31	Z31	X32	Y32	Z32	X33	Y33	Z33	X34	Y34	Z34	X35	Y35	Z35	X36	Y36	Z36	X37	Y37	Z37	X38	Y38	Z38	X39	Y39	Z39	X40	Y40	Z40	X41	Y41	Z41	X42	Y42	Z42	X43	Y43	Z43	X44	Y44	Z44	X45	Y45	Z45	X46	Y46	Z46	X47	Y47	Z47	X48	Y48	Z48	X49	Y49	Z49	X50	Y50	Z50	X51	Y51	Z51	X52	Y52	Z52	X53	Y53	Z53	X54	Y54	Z54	X55	Y55	Z55	X56	Y56	Z56	

105	1.04	-907.9017944335938	945.4378051757812	848.6937255859375	-894.555419921875	949.9668579101562	719.4281616210938	-904.268310546875	1008.593078613281	794.1906127929688	-662.22998046875	1185.0439453125	794.7814331054688	-904.75537109375	1127.776000976562	790.71142578125	-852.6897583007812	1373.760864257812	773.6669921875	-699.2059326171875	1312.494018554688	785.8416137695312	-907.9112548828125	1238.6552734375	843.1657104492188	-861.8248901367188	1334.3662109375	672.4308471679688	-774.0401611328125	1346.508178710938	618.2124633789062	-802.3609008789062	1227.959106445312	553.8758544921875	-816.8771362304688	1024.24365234375	545.189208984375	-873.6754760742188	1020.56787109375	608.0673217773438	-803.2754516601562	765.3004150390625	529.6856689453125	-818.5545654296875	919.5208740234375	537.422607421875	-821.0222778320312	697.8385620117188	536.0520629882812	-765.1693725585938	689.1629638671875	566.364501953125	-801.779541015625	1362.8232421875	939.0689697265625	-817.8294067382812	1300.619873046875	1002.920104980469	-831.8124389648438	1034.896728515625	1051.755004882812	-863.4443969726562	1027.864379882812	963.7182006835938	-766.04248046875	789.0877075195312	1079.661987304688	-810.7103881835938	966.5100708007812	1064.41162109375	-719.1181640625	629.48583984375	1027.2880859375	-701.71435546875	702.0128173828125	1031.703857421875	-752.6853637695312	705.2605590820312	1078.370361328125	-792.338134765625	1581.167114257812	859.19189453125	-647.6519165039062	1582.528686523438	709.9468383789062	-637.4951171875	1588.8046875	810.281982421875	-833.31005859375	1568.86328125	721.1249389648438	-790.451171875	901.4119873046875	625.5322265625	-846.7130126953125	884.9484252929688	965.82470703125	-734.7105712890625	909.8465576171875	940.0145874023438	-685.2754516601562	919.6829833984375	706.8519897460938	-608.8641357421875	465.2533569335938	688.5234375	-651.2101440429688	596.5890502929688	657.1463012695312	-701.3323364257812	51.51315689086914	743.2381591796875	-643.6083374023438	238.1231842041016	704.65380859375	-488.6661987304688	45.18427276611328	769.7488403320312	-550.4922485351562	29.18648147583008	821.0209350585938	-579.5826416015625	46.27762603759766	712.8463745117188	-723.6885375976562	45.11373138427734	814.2356567382812	-852.8175659179688	441.0317077636719	984.6218872070312	-929.811279296875	344.7368469238281	984.7359619140625	-1153.12353515625	32.03049468994141	926.9181518554688	-1169.245971679688	76.53376007080078	885.2809448242188	-1202.197387695312	105.8112030029297	994.6093139648438	-1219.651123046875	255.2811126708984	926.6068115234375	-758.0568237304688	767.0537109375	582.6234741210938	-789.8402709960938	607.6629028320312	583.1907348632812	-726.8711547851562	802.8377685546875	1015.094543457031	-798.2282104492188	687.9807739257812	996.1122436523438	-1210.53857421875	207.6162109375	976.3274536132812	nan	nan	nan	nan	nan	nan	nan	nan	nan	
106	1.05	-898.65771484375	945.7929077148438	846.8190307617188	-885.0934448242188	951.1389770507812	717.5355224609375	-894.6337890625	1009.863464355469	791.3683471679688	-652.9641723632812	1186.648681640625	792.6565551757812	-895.0211181640625	1129.19091796875	787.339599609375	-843.4620361328125	1375.358032226562	770.7626342773438	-689.9320068359375	1314.209228515625	783.6300048828125	-898.7938232421875	1240.108276367188	839.8325805664062	-851.959228515625	1336.015991210938	669.3768310546875	-763.8516235351562	1348.42041015625	615.7440185546875	-790.6637573242188	1229.805786132812	550.7296142578125	-801.9887084960938	1025.9326171875	540.4693603515625	-859.5274047851562	1021.010681152344	602.5771484375	-782.9127807617188	767.3291015625	524.3896484375	-801.61083984375	921.18359375	532.2449951171875	-798.972900390625	699.4370727539062	530.3758544921875	-743.233642578125	692.06298828125	561.0943603515625	-793.3137817382812	1364.231323242188	936.3899536132812	-809.6314697265625	1301.950927734375	1000.046691894531	-823.4823608398438	1036.205932617188	1048.793701171875	-854.7042236328125	1029.1640625	960.6032104492188	-757.3981323242188	790.611572265625	1077.09375	-802.346435546875	967.8655395507812	1061.60009765625	-709.634521484375	631.1351928710938	1024.917846679688	-692.51708984375	703.662353515625	1029.375732421875	-743.7653198242188	706.7924194335938	1075.81640625	-782.962646484375	1582.802978515625	856.9805908203125	-638.5472412109375	1584.23974609375	707.5155639648438	-628.21240234375	1590.408203125	807.824462890625	-824.200927734375	1570.6318359375	718.9442749023438	-780.5537719726562	902.5924682617188	623.6121215820312	-836.5472412109375	885.464111328125	963.5786743164062	-724.8353881835938	911.5134887695312	937.6535034179688	-675.605224609375	920.9902954101562	704.1903076171875	-605.0419311523438	464.2765808105469	687.4810791015625	-645.6399536132812	596.1099853515625	655.6884765625	-701.2649536132812	51.42083358764648	743.0345458984375	-641.9193725585938	237.650146484375	703.9744262695312	-488.6508483886719	44.98150634765625	769.6951293945312	-550.5291137695312	29.32011222839355	820.9823608398438	-579.549560546875	46.02416229248047	712.6805419921875	-723.6851806640625	45.32672119140625	814.0616455078125	-828.4336547851562	440.6172790527344	983.5984497070312	-905.8517456054688	344.867431640625	983.3706665039062	-1140.90380859375	32.25793075561523	925.8624877929688	-1154.559204101562	81.48092651367188	884.9865112304688	-1184.436401367188	112.1224975585938	994.654052734375	-1196.986450195312	262.8505554199219	927.5277709960938	-738.3745727539062	769.964599609375	577.7140502929688	-765.3629150390625	610.3858642578125	576.9244384765625	-717.7813110351562	804.51953125	1012.799682617188	-782.6163940429688	688.7625732421875	993.8501586914062	-1189.191772460938	214.5962524414062	976.9465942382812	nan	nan	nan	nan	nan	nan	nan	nan	nan	
107	1.06	-889.567138671875	946.2216796875	845.094970703125	-875.8646240234375	952.4157104492188	715.7677612304688	-885.0857543945312	1011.145690917969	788.6168823242188	-643.957275390625	1188.180541992188	790.7349853515625	-885.5800170898438	1130.616943359375	784.08740234375	-834.3594360351562	1376.944458007812	767.8732299804688	-680.8146362304688	1315.912475585938	781.5101318359375	-889.8365478515625	1241.584594726562	836.5269165039062	-842.236572265625	1337.655029296875	666.3534545898438	-753.7756958007812	1350.263793945312	613.3428955078125	-779.0872802734375	1231.589721679688	547.6792602539062	-787.0941772460938	1027.641967773438	535.7730712890625	-845.427978515625	1021.392822265625	597.0064086914062	-762.3672485351562	769.5115356445312	519.1573486328125	-784.592041015625	922.8785400390625	527.0593872070312	-776.6502685546875	701.2085571289062	524.7313842773438	-721.0958251953125	695.2005004882812	555.95458984375	-785.053955078125	1365.678344726562	933.7572631835938	-801.6751098632812	1303.3359375	997.2190551757812	-815.2916870117188	1037.541748046875	1045.76513671875	-845.9905395507812	1030.454956054688	957.3946533203125	-748.8580322265625	792.1865234375	1074.5439453125	-794.0946044921875	969.2365112304688	1058.722534179688	-700.0470581054688	632.8366088867188	1022.789733886719	-683.2645263671875	705.4385375976562	1027.246215820312	-734.86376953125	708.3984375	1073.373901367188	-773.6323852539062	1584.437866210938	854.8023071289062	-629.4752807617188	1585.908935546875	705.1157836914062	-618.9603271484375	1591.958984375	805.3989868164062	-815.1264038085938	1572.416625976562	716.802978515625	-770.8859252929688	903.7636108398438	621.9081420898438	-826.5084838867188	885.9938354492188	961.3992309570312	-715.1079711914062	913.1548461914062	935.3345947265625	-666.23583984375	922.3544921875	701.588623046875	-601.6549072265625	463.3786926269531	686.3876342773438	-640.5215454101562	595.7237548828125	654.2467651367188	-701.2196655273438	51.30574417114258	742.80126953125	-640.4244995117188	237.2308959960938	703.2642211914062	-488.6460876464844	44.85739898681641	769.6383666992188	-550.5549926757812	29.47311401367188	820.8990478515625	-579.55322265625	45.83198547363281	712.5169677734375	-723.70263671875	45.50890731811523	813.8961791992188	-803.86572265625	440.6692810058594	982.2631225585938	-881.54296875	345.1327819824219	981.60302734375	-1125.447998046875	33.59949493408203	924.989501953125	-1137.396484375	86.16395568847656	884.6703491210938	-1164.4912109375	117.776985168457	994.6738891601562	-1173.966674804688	269.2313537597656	928.05029296875	-718.5711059570312	773.075439453125	572.89794921875	-740.8837280273438	613.1189575195312	571.0013427734375	-708.7518920898438	806.22021484375	1010.540466308594	-766.4684448242188	689.18505859375	991.1218872070312	-1166.933837890625	220.5937042236328	977.205810546875	nan	nan	nan	nan	nan	nan	nan	nan	nan	
108	1.07	-880.5877685546875	946.7564086914062	843.5274658203125	-866.8654174804688	953.7764282226562	714.1248779296875	-875.6085205078125	1012.460571289062	785.9777221679688	-635.1770629882812	1189.670166015625	788.982666015625	-876.4107055664062	1132.046020507812	780.9808349609375	-825.3802490234375	1378.5146484375	765.0111083984375	-671.848388671875	1317.612060546875	779.4737548828125	-881.0208740234375	1243.067749023438	833.2785034179688	-832.66650390625	1339.271362304688	663.3773803710938	-743.8372802734375	1352.035766601562	611.00830078125	-767.6509399414062	1233.318603515625	544.7319946289062	-772.2013549804688	1029.373901367188	531.1239624023438	-831.390869140625	1021.728881835938	591.3805541992188	-741.6744995117188	771.8865966796875	513.9859008789062	-767.5137329101562	924.619384765625	521.898193359375	-754.0980224609375	703.2051391601562	519.11328125	-698.8032836914062	698.5985107421875	550.9291381835938	-776.9747314453125	1367.177978515625	931.1718139648438	-793.9166870117188	1304.787353515625	994.44482421875	-807.2435913085938	1038.916625976562	1042.67041015625	-837.2888793945312	1031.768310546875	954.0833129882812	-740.4517822265625	793.817626953125	1072.006103515625	-785.977783203125	970.64697265625	1055.777465820312	-690.4061889648438	634.6025390625	1020.889526367188	-673.996826171875	707.3284301757812	1025.320434570312	-726.0324096679688	710.0851440429688	1071.032836914062	-764.3513793945312	1586.076538085938	852.6512451171875	-620.4400634765625	1587.5283203125	702.7408447265625	-609.7468872070312	1593.463256835938	803.0036010742188	-806.0904541015625	1574.211791992188	714.6975708007812	-761.508056640625	904.8854370117188	620.4030151367188	-816.531982421875	886.6136474609375	959.300537109375	-705.4750366210938	914.820556640625	933.0162963867188	-657.1836547851562	923.76708984375	698.978271484375	-598.61767578125	462.5711059570312	685.2803955078125	-635.7719116210938	595.4337768554688	652.85693359375	-701.191650390625	51.17746353149414	742.5494384765625	-639.0894775390625	236.8645172119141	702.5394897460938	-488.6506652832031	44.78672409057617	769.5835571289062	-550.5709228515625	29.63250923156738	820.783935546875	-579.5731811523438	45.68648147583008	712.3607788085938	-723.728271484375	45.66418075561523	813.7418823242188	-779.2188720703125	441.2379760742188	980.609375	-857.0101928710938	345.6397094726562	979.4840087890625	-1106.50830078125	35.84756851196289	924.4740600585938	-1117.689697265625	90.34160614013672	884.4266357421875	-1142.536987304688	122.6868743896484	994.674072265625	-1150.783935546875	274.3642883300781	928.0806884765625	-698.6893920898438	776.4012451171875	568.1851196289062	-716.3709106445312	615.9674072265625	565.347900390625	-699.791015625	807.9539184570312	1008.337829589844	-749.8186645507812	689.287841796875	987.9398193359375	-1143.969482421875	225.6153411865234	977.0880737304688	nan	nan	nan	nan	nan	nan	nan	nan	nan	
